<svg width="1210" height="465" viewBox="0 0 1210 465" fill="none" xmlns="http://www.w3.org/2000/svg">
<g filter="url(#filter0_f_24_44)">
<path d="M5 465C5 465 135.477 443.127 237.022 429.111M1205 465C1205 465 1095.9 447.313 1043.37 439.298C1003.67 433.239 981.282 430.49 941.294 426.759M881.491 419.413C873.706 419.413 869.341 419.413 861.556 419.413M881.491 419.413C887.122 423.475 890.397 425.606 896.387 429.106C901.489 432.088 904.598 433.303 909.749 436.197C914.777 439.021 917.887 440.195 922.455 443.73C926.491 446.854 929.468 448.286 931.874 452.814C933.116 455.152 934.269 456.593 934.065 459.239C933.897 461.403 931.874 464.335 931.874 464.335M881.491 419.413C881.491 390.318 881.491 344.911 881.491 344.911M881.491 419.413C904.845 422.282 917.939 423.89 941.294 426.759M368.676 414.705C368.676 414.705 378.205 415.703 382.038 419.801C383.833 421.719 385.656 422.922 385.543 425.561C385.399 428.928 381.843 429.282 379.191 431.322C374.588 434.863 371.316 435.782 366.266 438.634C360.281 442.014 357.058 444.163 350.932 447.275C346.383 449.586 343.104 449.63 339.103 452.814C336.439 454.934 335.092 456.402 333.188 459.239C331.985 461.034 330.56 464.114 330.56 464.114M368.676 414.705L398.03 412.267M368.676 414.705C368.676 414.705 349.584 416.479 337.35 417.615M368.676 414.705L366.266 363.966H398.03V412.267M398.03 412.267C398.03 412.267 408.413 414.792 412.268 419.801C413.82 421.817 415.335 423.006 415.335 425.561C415.335 428.116 413.939 429.405 412.268 431.322C409.074 434.987 405.142 433.903 400.877 436.197C396.834 438.371 394.663 439.815 391.02 442.622C388.798 444.333 386.132 444.513 385.543 447.275C384.897 450.307 387.392 451.877 389.486 454.143C392.131 457.006 394.469 457.696 398.03 459.239C402.798 461.306 405.831 461.514 410.954 462.341C421.767 464.087 428.057 462.899 438.993 462.341C460.332 461.254 471.815 456.018 493.101 454.143C514.924 452.221 527.282 453.443 549.18 452.814C574.25 452.093 588.284 450.601 613.364 450.598C638.529 450.595 652.636 451.475 677.767 452.814C696.946 453.836 707.682 454.709 726.836 456.137C741.984 457.267 750.432 458.629 765.609 459.239C780.995 459.858 789.641 459.239 805.039 459.239C818.813 459.239 826.535 459.239 840.308 459.239C854.252 459.239 862.192 461.103 876.014 459.239C882.234 458.401 887.859 461.087 891.786 456.137C894.177 453.125 895.209 450.389 894.415 446.61C893.395 441.753 888.796 441.334 884.996 438.191C878.876 433.128 874.512 431.497 868.566 426.226C865.711 423.695 864.17 422.198 861.556 419.413M398.03 412.267C398.03 412.267 412.716 411.325 422.126 410.722M861.556 419.413C839.485 417.835 827.111 416.951 805.039 415.374M881.491 344.911L805.039 339.594M881.491 344.911L944.36 355.99M881.491 344.911L884.996 342.031L854.328 250.303M805.039 339.594C805.039 339.594 805.039 385.78 805.039 415.374M805.039 339.594L799.782 336.049L848.851 250.303H854.328M805.039 415.374C805.039 415.374 721.955 407.715 668.566 405.62C648.677 404.84 631.444 404.273 615.244 403.942M944.36 355.99C944.36 355.99 942.491 399.122 941.294 426.759M944.36 355.99L922.455 281.765L909.749 274.897V250.303L899.234 243.877M899.234 243.877V296.388L887.843 284.867V264.372M899.234 243.877H887.843V264.372M887.843 264.372L854.328 250.303M845.346 292.844C836.499 291.938 828.484 300.288 829.355 309.239C830.114 317.042 836.281 322.827 844.032 322.755C852.138 322.68 858.524 315.888 858.49 307.688C858.464 301.666 855.192 296.544 850.165 294.172M845.346 292.844C847.077 293.021 848.696 293.479 850.165 294.172M845.346 292.844L850.165 294.172M422.126 410.722C453.133 408.087 501.644 405.62 501.644 405.62C539.695 403.969 568.028 403.375 598 403.676M422.126 410.722C423.067 346.344 424.536 245.871 424.536 245.871L434.393 116.699L316.102 113.375M316.102 113.375L316.739 121.573M316.102 113.375L283.024 152.371V162.341M337.35 417.615C316.99 419.507 305.527 420.098 285.215 422.459C266.344 424.653 255.784 426.111 237.022 429.111M337.35 417.615C336.495 389.742 335.16 346.241 335.16 346.241L334.676 340.702M334.676 340.702L326.398 245.871L316.739 121.573M334.676 340.702H281.929L273.824 346.241L270.757 318.323M270.757 318.323L254.985 340.702L247.756 318.323L241.408 326.189M270.757 318.323L276.014 307.688L264.185 231.47M237.022 429.111C227.526 429.975 212.706 431.322 212.706 431.322V361.75L235.059 334.055M237.022 429.111C236.255 391.989 235.059 334.055 235.059 334.055M235.059 334.055L241.408 326.189M241.408 326.189V269.801L257.075 243.434M264.185 231.47L257.075 243.434M264.185 231.47L270.538 228.811M257.075 243.434C257.075 243.434 255.401 174.159 254.327 129.771M254.327 129.771C246.014 131.214 238.014 125.171 237.022 116.699C235.927 107.344 245.128 98.4991 254.309 100.081M254.327 129.771C258.177 129.771 260.335 129.771 264.185 129.771M264.185 129.771C272.839 129.927 280.058 122.096 279.3 113.375C278.524 104.439 269.375 97.8726 260.779 100.081M264.185 129.771C266.666 168.449 270.538 228.811 270.538 228.811M270.538 228.811H290.253M290.253 228.811L283.024 162.341M290.253 228.811L302.52 326.189M283.024 162.341L316.739 121.573M260.779 100.081C260.438 98.3207 258.831 97.1672 257.075 97.4225C255.6 97.6369 254.596 98.6022 254.309 100.081M260.779 100.081C259.333 66.8549 257.075 15 257.075 15H253.232C253.232 15 253.889 66.8549 254.309 100.081M822.564 368.5V359.756H832M822.564 368.5V398.309L861.556 400.303V359.756H832M822.564 368.5L832 359.756M832 359.756L824.5 377.5L843 361.5L824.5 388L853 361.5L825.5 398.309L858 368.5L843 395L858 387M992 377.5V336.049L979.5 322.755L992 320L986.5 294.172L996 304.5L1000 296.388V314.5H1009.5L1000 332.5L1002.5 372V395.5M598 375.5V403.676M613.364 375.5L615.244 403.942M598 403.676V414.705L616 415.374L615.244 403.942M598 240.5V245.871M613.364 240.5V245.871M598 87V106M613.364 87V106M342.17 134.646V156.581H406.792V134.646H342.17ZM342.17 167.659V188.929H406.792V165.886L342.17 167.659ZM345.237 199.564V220.835H405.258V197.792H345.237V199.564ZM345.237 231.47V251.632H405.258V231.47H345.237ZM347.208 263.597V283.538H405.258V263.597H347.208ZM348.961 296.388V315.222H405.258V296.388H348.961ZM350.932 328.959V346.241H405.258V326.189H350.932V328.959ZM247.756 369.505V388.117H302.52V369.505H247.756ZM889.377 184.055C887.865 186.769 888.058 189.216 889.377 192.031C890.961 195.414 893.65 196.537 897.263 197.349C899.434 197.837 901.014 196.256 902.958 197.349C905.585 198.824 904.544 201.811 905.587 204.66C906.348 206.74 906.242 208.204 907.559 209.978C909.154 212.128 910.651 213.203 913.254 213.744C915.803 214.275 917.227 212.759 919.826 212.637C920.851 212.588 921.441 212.802 922.455 212.637C926.098 212.043 926.493 208.476 929.245 205.99C930.92 204.477 932.607 204.246 933.627 202.223C934.831 199.833 934.934 197.688 933.627 195.354C932.021 192.488 925.959 192.031 925.959 192.031C925.959 192.031 923.219 190.598 922.455 188.929C921.664 187.202 921.918 185.879 922.455 184.055C923.351 181.005 926.994 181.253 928.15 178.294C929.219 175.558 928.573 173.671 928.15 170.761C927.721 167.809 928.155 165.442 925.959 163.449C924.106 161.766 922.292 162.031 919.826 161.677C917.285 161.311 915.784 161.242 913.254 161.677C910.075 162.223 908.319 163.045 905.587 164.778C902.716 166.601 901.666 168.372 899.234 170.761C897.586 172.381 896.137 172.91 895.072 174.97C894.101 176.85 895.038 178.458 893.977 180.288C892.807 182.305 890.511 182.018 889.377 184.055ZM909.53 96.9793C910.295 100.268 906.03 102.394 907.559 105.399C908.476 107.201 911.502 108.722 911.502 108.722C911.502 108.722 917.577 107.823 919.826 110.273C922.387 113.063 917.864 116.773 919.826 120.022C922.046 123.697 925.739 123.33 929.903 124.232C934.754 125.283 937.646 124.232 942.608 124.232C944.747 124.232 946.247 123.126 948.084 124.232C951.172 126.091 945.297 131.245 948.084 133.538C949.407 134.625 950.552 134.68 952.246 134.867C954.848 135.154 956.206 133.374 958.818 133.538C962.148 133.746 963.4 137.327 966.704 136.861C970.363 136.346 971.625 133.518 973.714 130.436C975.207 128.233 975.275 126.565 976.562 124.232C978.18 121.298 979.846 120.122 981.381 117.142C982.982 114.034 983.984 112.195 984.448 108.722C984.734 106.579 985.259 105.185 984.448 103.183C983.112 99.8859 979.584 100.583 976.562 98.7518C975.442 98.0732 974.566 97.9802 973.714 96.9793C971.492 94.3688 976.201 91.702 975.467 88.3383C974.616 84.4434 971.291 83.7515 968.895 80.5834C967.179 78.3145 966.916 76.413 964.733 74.6012C962.054 72.3788 959.823 72.0949 956.409 71.4993C953.205 70.9403 951.335 71.4993 948.084 71.4993C944.149 71.4993 941.765 70.3158 938.008 71.4993C935.596 72.259 934.531 73.379 932.312 74.6012C929.824 75.972 928.778 77.8546 925.959 78.1462C922.999 78.4525 921.579 76.5799 918.731 75.709C916.267 74.9558 914.866 73.2718 912.378 73.9365C909.623 74.6723 908.916 76.9423 907.559 79.4756C906.125 82.1512 905.398 83.9716 905.587 87.0089C905.74 89.4666 906.6 90.7277 907.559 92.9911C908.237 94.5917 909.136 95.2843 909.53 96.9793ZM598 6V23H613.364V6H598Z" stroke="#7C7C7C" stroke-width="4"/>
</g>
<g filter="url(#filter1_f_24_44)">
<path d="M746.615 391.343L754 387.612L750.308 393.582L759.231 388.856L760.769 380.149L766 376.915V382.637L764.154 385.373L762.923 390.1L756.154 393.582L752.462 398.308L750.308 403.781L758 406.517M758 406.517L762.923 402.289L759.231 396.07L766 393.582V402.289L774.615 403.781L778.308 393.582L773.077 397.065L768.769 387.612H774.615L768.769 376.915L774.615 374.179L778.308 380.149V370.448H773.077L778.308 363.483L781.692 365.473L787.231 366.965L791.846 365.473L785.385 374.179V382.637L776.769 384.129L781.692 388.856L785.385 385.373L793.692 382.637L788.462 375.92L793.692 372.687L797.385 380.149V388.856L788.462 390.1L797.385 397.065L783.538 393.582L785.385 398.308L780.154 405.771L787.231 406.517L791.846 400.299L793.692 406.517L797.385 405.771V400.299L764.154 406.517H758ZM802 410V368.458L791.846 363.483L785.385 360H778.308L768.769 363.483L766 368.458V372.687L758 374.179L756.154 380.149V385.373H746.615L744.769 393.582L746.615 398.557L742 402.289V406.517V410H802Z" stroke="#858A14" stroke-width="4"/>
</g>
<g filter="url(#filter2_f_24_44)">
<path d="M990.212 366.443L979.568 361.561L967.593 354.562M990.212 366.443V347.564M990.212 366.443L985.888 358.631M967.593 319.571L990.212 339.101V347.564M967.593 319.571H990.212L985.888 302.971L971.252 279.535M967.593 319.571L979.568 311.434V302.971L973.247 311.434L974.202 298.74L950.628 317.618L971.252 290.602L939.983 319.571M967.593 273.676L974.202 279.535M967.593 273.676L939.983 298.74M967.593 273.676L971.252 279.535M1025.8 302.971L1004.52 311.434V290.602M1025.8 302.971L1007.18 322.501L1001.52 336.497L1004.52 371H1039.44M1025.8 302.971L1064.06 260.005L1012.17 302.971L1058.4 253.007L1007.18 291.904M1039.44 371L1069.05 361.561L1089.67 339.101L1092 325.105L1078.36 311.434L1092 302.971V291.904L1089.67 279.535L1073.37 264.888L1069.05 247.962L1052.75 241.127L1043.43 227.781M1039.44 371L1052.75 361.561L1062.06 358.631L1082.69 336.497L1034.45 366.443L1082.69 325.105L1025.8 361.561L1073.37 319.571L1012.17 361.561L1082.69 298.74L1012.17 347.564L1086.35 286.371L1012.17 336.497L1073.37 279.535L1012.17 325.105L1069.05 273.676L1034.45 302.971M1043.43 227.781L1047.09 211.181L1034.45 200.765L1018.82 195.882H1007.18L995.867 191L987.717 195.882M1043.43 227.781L979.568 284.291M979.568 200.765H967.593L955.617 195.882L944.973 206.298L936.99 219.644L934.495 230.385M979.568 200.765L932 264.888M979.568 200.765L987.717 195.882M932 264.888L936.99 279.535L932 287.673L939.983 319.571M932 264.888V253.007M934.495 230.385L932 241.127V253.007M934.495 230.385L955.617 200.765L936.99 241.127L961.938 206.298L932 253.007M987.717 195.882L939.983 267.492L995.867 195.882L944.973 269.77L1001.52 200.765L939.983 284.092L1012.17 200.765L950.628 279.535L1025.8 211.181L995.867 227.781L1025.8 200.765L1034.45 211.181L973.247 264.888L1039.44 219.644L974.202 279.535M974.202 279.535L979.568 284.291M979.568 284.291L987.717 291.515M987.717 291.515L995.867 298.74L1003.35 273.676M987.717 291.515L1003.35 273.676M1003.35 273.676L1004.52 269.77V290.602M1007.18 273.676L1039.44 241.127L1007.18 279.535L1047.09 247.962L1004.52 290.602M944.973 302.971L971.252 279.535M939.983 319.571L952.889 352.55L967.593 354.562M955.617 325.105L967.593 311.434L958.944 334.219L971.252 325.105L964.599 342.031L979.568 334.219L973.58 344.391M967.593 354.562L973.58 344.391M973.58 344.391L985.888 342.031L974.202 354.562L990.212 347.564" stroke="#B0BD13" stroke-width="4"/>
</g>
<g filter="url(#filter3_f_24_44)">
<path d="M1018.17 428.519L1000.16 428.076L978.182 427.535L948.652 421.502L947.323 389.388L947.394 386.496L953.351 381.336L963.943 381.596L976.843 385.05L983.329 379.903L996.969 385.545L996.844 390.607L998.496 398.849L1009.82 401.54L1022.83 411.267L1026.64 418.114L1024.61 425.3L1018.17 428.519ZM1018.17 428.519L1018.25 425.144L1022.58 421.391L1014.33 423.118L1022.79 412.954L1005.01 424.818L1014.62 411.065L996.008 424.597L1009.68 407.566L987.798 424.395L1003.13 404.51L978.265 424.16L998.437 401.259L971.474 420.134L992.771 394.607L963.042 418.238L991.089 387.571L954.832 418.036L983.145 387.376L950.949 414.322L972.341 384.939L951.151 406.126L967.044 384.808L951.358 397.689L960.953 384.659L951.536 390.457" stroke="#848E11" stroke-width="5"/>
</g>
<g filter="url(#filter4_f_24_44)">
<path d="M516.5 447L578 409.5L538.5 447L599.5 409.5L565.5 447L630 408L590 447L655 408L621.5 444.5L672 411.5L646 442L693.5 414L672 442L709 416.5L696 442L725 419.5L720.5 436.5L746 422.5L734.5 444.5L768.5 424.5L757.5 444.5L792 422.5L772 450L803.5 424.5L785 453.5L818 422.5L799.5 453.5L831 424.5L813 455L846.5 424.5L828 453.5L859 428L844.5 451.5L867 436.5L856.5 453.5L876 441.5L872.5 453.5L886.5 446.5L883.5 455M347 144.5L355 139L347 152L363.5 139L358.5 152L376 139L372 152L388 139L384.5 152L398 141L395 152L402.5 147M347 176.5L355 171L347 184L363.5 171L358.5 184L376 171L372 184L388 171L384.5 184L398 173L395 184L402.5 179M347 241L355 235.5L347 248.5L363.5 235.5L358.5 248.5L376 235.5L372 248.5L388 235.5L384.5 248.5L398 237.5L395 248.5L402.5 243.5M347 273L355 267.5L347 280.5L363.5 267.5L358.5 280.5L376 267.5L372 280.5L388 267.5L384.5 280.5L398 269.5L395 280.5L402.5 275.5M350.5 304.5L358.5 299L350.5 312L367 299L362 312L379.5 299L375.5 312L391.5 299L388 312L401.5 301L398.5 312L406 307M350.5 335.5L358.5 330L350.5 343L367 330L362 343L379.5 330L375.5 343L391.5 330L388 343L401.5 332L398.5 343L406 338M347 208.5L355 203L347 216L363.5 203L358.5 216L376 203L372 216L388 203L384.5 216L398 205L395 216L402.5 211M286.5 166.5L313 144.5L289.5 176.5L313 156.5L289.5 189L315.5 171L293 198.5L315.5 184L293 211M293 211L315.5 198.5L293 225.5M293 211V225.5M293 225.5L296.5 235.5L308 216L299 248.5L311 237.5C307.876 254.293 302 256 303 280.5M245.5 273L261.5 248.5L245.5 287.5L266 261L245.5 294.5L266 277M266 277L245.5 306.5L269.5 291L266 277ZM212.5 366.5L234 349.5L216.5 374.5L231 368L216.5 389L234 382L225.25 389.25M225.25 389.25L216.5 396.5H231L225.25 389.25ZM889.5 252L896.5 249.5L889.5 262H896.5L889.5 274L895 273M895 273L889.5 284H895L896.5 290.5L895 273ZM864 267L866.5 260H861.5L866.5 273L872 262L869.5 281.5L881.5 267L872 290.5L881.5 281.5L876 297.5L885.5 290.5L876 306L889.5 297.5L879.5 316.5L896.5 300.5L885.5 329L914 284L892.5 334L921 290.5L895 341L923 302.5L902 341L926.5 312L911.5 341L929 322M929 322L919 346.5L929 336L926.5 350.5L934.5 344.5L937 350.5L933 330.5L929 322Z" stroke="#8B8B8B" stroke-opacity="0.53" stroke-width="4"/>
</g>
<g filter="url(#filter5_f_24_44)">
<path d="M259.5 131C258.719 123.385 257.5 111.5 257.5 111.5L262.5 114.5L257.5 116.5C257.5 116.5 249.655 115.003 250 111.5C250.325 108.196 254.194 107.803 257.5 107.5C261.509 107.132 264.322 108.495 267 111.5C268.979 113.72 270 118.5 270 118.5L267 122H257.5L247.5 118.5L243.5 109.5C243.5 109.5 248.078 104.443 252 103C256.581 101.314 259.885 101.409 264.5 103C268.599 104.413 273.5 109.5 273.5 109.5L276.5 118.5L270 127.5H250L241.5 122V114.5L236.5 118.5L246 103L241.5 126L255 98.5L246 128.5L264.5 98.5L252 131L270 102L262.5 129.5L276.5 105L271.5 129.5L280 111.5L277.5 122L275.072 128.5M259.5 131C249.05 135.264 235.988 127.688 234.5 116.5C232.93 104.701 245.612 97.1025 257.5 96.5C270.14 95.8594 285.143 104.027 283 116.5C282.132 121.551 279.111 125.785 275.072 128.5M259.5 131C264.914 132.645 270.614 131.497 275.072 128.5M251.5 373.5V384.5L256.5 373.5L258 384.5L264.5 371V384.5L271 373.5V384.5L279 373.5L278 383.5L287.5 373.5L284.5 384.5L294 373.5L292.5 384.5M292.5 384.5L301.5 371L299.5 384.5H292.5ZM368.5 371L373.5 366.5L370.5 375.5L380 366.5L370.5 383.5L386 366.5L372 390L393.5 368L373.5 397L393.5 379.5L372 405L393.5 390L376.5 408.5L394 398M394 398L386 410L394 405L393.5 410H395.5M394 398L395.5 401.5V410M395.5 410H398.5M398.5 410V364H367L368.5 412.5L398.5 410ZM248 371V387H302.5V371H248Z" stroke="#5275A5" stroke-width="4"/>
</g>
<defs>
<filter id="filter0_f_24_44" x="0.670757" y="0" width="1208.65" height="470.974" filterUnits="userSpaceOnUse" color-interpolation-filters="sRGB">
<feFlood flood-opacity="0" result="BackgroundImageFix"/>
<feBlend mode="normal" in="SourceGraphic" in2="BackgroundImageFix" result="shape"/>
<feGaussianBlur stdDeviation="2" result="effect1_foregroundBlur_24_44"/>
</filter>
<filter id="filter1_f_24_44" x="735" y="353" width="74" height="64" filterUnits="userSpaceOnUse" color-interpolation-filters="sRGB">
<feFlood flood-opacity="0" result="BackgroundImageFix"/>
<feBlend mode="normal" in="SourceGraphic" in2="BackgroundImageFix" result="shape"/>
<feGaussianBlur stdDeviation="2.5" result="effect1_foregroundBlur_24_44"/>
</filter>
<filter id="filter2_f_24_44" x="922.856" y="181.758" width="178.286" height="198.242" filterUnits="userSpaceOnUse" color-interpolation-filters="sRGB">
<feFlood flood-opacity="0" result="BackgroundImageFix"/>
<feBlend mode="normal" in="SourceGraphic" in2="BackgroundImageFix" result="shape"/>
<feGaussianBlur stdDeviation="3.5" result="effect1_foregroundBlur_24_44"/>
</filter>
<filter id="filter3_f_24_44" x="938.822" y="371.031" width="98.6827" height="66.0027" filterUnits="userSpaceOnUse" color-interpolation-filters="sRGB">
<feFlood flood-opacity="0" result="BackgroundImageFix"/>
<feBlend mode="normal" in="SourceGraphic" in2="BackgroundImageFix" result="shape"/>
<feGaussianBlur stdDeviation="3" result="effect1_foregroundBlur_24_44"/>
</filter>
<filter id="filter4_f_24_44" x="204.706" y="126.924" width="740.255" height="336.413" filterUnits="userSpaceOnUse" color-interpolation-filters="sRGB">
<feFlood flood-opacity="0" result="BackgroundImageFix"/>
<feBlend mode="normal" in="SourceGraphic" in2="BackgroundImageFix" result="shape"/>
<feGaussianBlur stdDeviation="3" result="effect1_foregroundBlur_24_44"/>
</filter>
<filter id="filter5_f_24_44" x="228.367" y="90.4649" width="176.133" height="328.203" filterUnits="userSpaceOnUse" color-interpolation-filters="sRGB">
<feFlood flood-opacity="0" result="BackgroundImageFix"/>
<feBlend mode="normal" in="SourceGraphic" in2="BackgroundImageFix" result="shape"/>
<feGaussianBlur stdDeviation="2" result="effect1_foregroundBlur_24_44"/>
</filter>
</defs>
</svg>
