<svg width="601" height="442" viewBox="0 0 601 442" fill="none" xmlns="http://www.w3.org/2000/svg">
<path d="M172.787 441.707H427.893C523.243 441.707 600.28 364.04 600.28 269.32C600.28 173.971 522.613 96.9334 427.893 96.9334H397.587C385.592 96.9334 375.488 107.037 375.488 119.032C375.488 131.027 385.592 141.131 397.587 141.131H427.893C498.617 141.131 556.076 198.595 556.076 269.313C556.076 340.037 498.612 397.496 427.893 397.496L172.787 397.501C102.063 397.501 44.604 340.037 44.604 269.319C44.604 198.595 102.068 141.136 172.787 141.136H260.557L201.833 199.86C192.995 208.698 192.995 222.595 201.833 231.433C210.672 240.272 224.568 240.272 233.407 231.433L329.385 135.455C333.807 131.033 335.698 125.35 335.698 119.668C335.698 113.986 333.172 108.303 329.385 103.881L233.401 7.27187C228.979 2.85 223.297 0.959351 217.615 0.959351C211.932 0.959351 206.25 2.8552 201.828 7.27187C192.989 16.1104 192.989 30.0065 201.828 38.8452L260.552 97.5692H172.787C77.4373 97.5692 0.400024 175.236 0.400024 269.956C0.400024 364.669 78.0667 441.703 172.787 441.703V441.707Z" fill="black"/>
</svg>
